<svg xmlns="http://www.w3.org/2000/svg" viewBox="0 0 510.14 510.14"><defs><style>.cls-1{fill:#ff2f35;opacity:0;}.cls-2{fill:#fffd82;}.cls-3{fill:#fff;}</style></defs><g id="Layer_2" data-name="Layer 2"><g id="Layer_1-2" data-name="Layer 1"><circle class="cls-1" cx="255.07" cy="255.07" r="255.07"/><path class="cls-2" d="M266.24,123.38,268.47,147l-90.6,8.39q-3.9-42.33-7.81-84.65L197.8,68l5.85,61.34Z"/><path class="cls-3" d="M292.61,169.57c-33.5,0-61.76,14.23-78.89,40.57l-.29.45c-.68,1.11-1.19,2.07-1.55,2.81h0l-4-42.27-.66-7.08L114,172.85,116.34,198l64.9-6.13,4.26,45.2,17.67,187.3,1.68,17.78,28.36-2.67-8-85.1C242.46,371.9,266,381,292.61,381c59.3,0,103.57-42.71,103.57-105.93C396.18,212.25,351.91,169.57,292.61,169.57Zm-2,185c-21.65,0-40.57-7.89-54.16-21.73a73.35,73.35,0,0,1-15.61-24.07,84.79,84.79,0,0,1-5.66-23.21,95.93,95.93,0,0,1-.55-10.44c0-2.46.08-4.86.27-7.24.06-1.06.16-2.1.28-3.12.23-2.17.54-4.31.91-6.4,6.72-38,36.45-62.71,74.52-62.71,43,0,76,32.16,76,79.47C366.61,322.77,333.66,354.56,290.64,354.56Z"/><path class="cls-3" d="M241.94,310a58.43,58.43,0,0,0,53.35,25.2c32.31-2.92,46.66-31.57,47.34-33Z"/></g></g></svg>